# xmcd
#
# Track frame offsets:
#	150
#	19436
#	36625
#	50189
#	65195
#	84345
#	97209
#	113917
#	129420
#	142731
#	158707
#	175236
#	192971
#	213382
#	228168
#	256209
#
# Disc length: 3422 seconds
#
# Revision: 1
# Processed by: cddbd v1.5.2PL0 Copyright (c) Steve Scherf et al.
# Submitted via: audiograbber 1.83.01
#
DISCID=e90d5c10
DTITLE=Various Artist - Karaoke Country 2
DYEAR=1900
DGENRE=
TTITLE0=Faith Hill-Tim McGraw - Country Vol 2 - 01 - Let's Make Love
TTITLE1=Garth Brooks - Country Vol 2 - 02 - The Dance
TTITLE2=George Straight - Country Vol 2 - 03 - What Do You Say To That
TTITLE3=Sammy Kershaw-Lorrie Morgan - Country Vol 2 - 04 - he Drinks Tequila
TTITLE4=Lonestar - Country Vol 2 - 05 - I'm Already There
TTITLE5=Merle Haggard - Country Vol 2 - 06 - If We make It Through December
TTITLE6=Montgomery Gentry - Country Vol 2 - 07 - She Couldn't Change Me
TTITLE7=Patty Loveless - Country Vol 2 - 08 - Last Thing On My Mind
TTITLE8=ascal Flatts - Country Vol 2 - 09 - This Everyday Love
TTITLE9=Rascal Flatts - Country Vol 2 - 10 - While You Loved Me
TTITLE10=Sara Evans - Country Vol 2 - 11 - Saints And Angels
TTITLE11=Tim McGraw - Country Vol 2 - 12 - Grown Men Don't Cry
TTITLE12=Tim McGraw - Country Vol 2 - 13 - Angry All The Time
TTITLE13=Tim McGraw - Country Vol 2 - 14 - All We Ever Find
TTITLE14=Travis Tritt - Country Vol 2 - 15 - Love Of A Woman
TTITLE15=Data Track
EXTD=
EXTT0=
EXTT1=
EXTT2=
EXTT3=
EXTT4=
EXTT5=
EXTT6=
EXTT7=
EXTT8=
EXTT9=
EXTT10=
EXTT11=
EXTT12=
EXTT13=
EXTT14=
EXTT15=
PLAYORDER=
